<mxfile host="65bd71144e">
    <diagram id="1Dom83xlvuhzjaV-_7sy" name="第 1 页">
        <mxGraphModel dx="744" dy="575" grid="1" gridSize="10" guides="1" tooltips="1" connect="1" arrows="1" fold="1" page="1" pageScale="1" pageWidth="827" pageHeight="1169" math="0" shadow="0">
            <root>
                <mxCell id="0"/>
                <mxCell id="1" parent="0"/>
                <mxCell id="2" value="应用层" style="rounded=1;whiteSpace=wrap;html=1;" vertex="1" parent="1">
                    <mxGeometry x="60" y="80" width="70" height="30" as="geometry"/>
                </mxCell>
                <mxCell id="3" value="表示层" style="rounded=1;whiteSpace=wrap;html=1;" vertex="1" parent="1">
                    <mxGeometry x="60" y="150" width="70" height="30" as="geometry"/>
                </mxCell>
                <mxCell id="4" value="会话层" style="rounded=1;whiteSpace=wrap;html=1;" vertex="1" parent="1">
                    <mxGeometry x="60" y="220" width="70" height="30" as="geometry"/>
                </mxCell>
                <mxCell id="5" value="传输层" style="rounded=1;whiteSpace=wrap;html=1;" vertex="1" parent="1">
                    <mxGeometry x="60" y="300" width="70" height="30" as="geometry"/>
                </mxCell>
                <mxCell id="6" value="网络层" style="rounded=1;whiteSpace=wrap;html=1;" vertex="1" parent="1">
                    <mxGeometry x="60" y="370" width="70" height="30" as="geometry"/>
                </mxCell>
                <mxCell id="7" value="数据链路层" style="rounded=1;whiteSpace=wrap;html=1;" vertex="1" parent="1">
                    <mxGeometry x="60" y="440" width="70" height="30" as="geometry"/>
                </mxCell>
                <mxCell id="8" value="物理层" style="rounded=1;whiteSpace=wrap;html=1;" vertex="1" parent="1">
                    <mxGeometry x="60" y="510" width="70" height="30" as="geometry"/>
                </mxCell>
                <mxCell id="9" value="应用层" style="rounded=1;whiteSpace=wrap;html=1;" vertex="1" parent="1">
                    <mxGeometry x="630" y="80" width="70" height="30" as="geometry"/>
                </mxCell>
                <mxCell id="10" value="表示层" style="rounded=1;whiteSpace=wrap;html=1;" vertex="1" parent="1">
                    <mxGeometry x="630" y="150" width="70" height="30" as="geometry"/>
                </mxCell>
                <mxCell id="11" value="会话层" style="rounded=1;whiteSpace=wrap;html=1;" vertex="1" parent="1">
                    <mxGeometry x="630" y="220" width="70" height="30" as="geometry"/>
                </mxCell>
                <mxCell id="12" value="传输层" style="rounded=1;whiteSpace=wrap;html=1;" vertex="1" parent="1">
                    <mxGeometry x="630" y="300" width="70" height="30" as="geometry"/>
                </mxCell>
                <mxCell id="13" value="网络层" style="rounded=1;whiteSpace=wrap;html=1;" vertex="1" parent="1">
                    <mxGeometry x="630" y="370" width="70" height="30" as="geometry"/>
                </mxCell>
                <mxCell id="14" value="数据链路层" style="rounded=1;whiteSpace=wrap;html=1;" vertex="1" parent="1">
                    <mxGeometry x="630" y="440" width="70" height="30" as="geometry"/>
                </mxCell>
                <mxCell id="15" value="物理层" style="rounded=1;whiteSpace=wrap;html=1;" vertex="1" parent="1">
                    <mxGeometry x="630" y="510" width="70" height="30" as="geometry"/>
                </mxCell>
                <mxCell id="20" value="网络层" style="rounded=1;whiteSpace=wrap;html=1;" vertex="1" parent="1">
                    <mxGeometry x="350" y="370" width="70" height="30" as="geometry"/>
                </mxCell>
                <mxCell id="21" value="数据链路层" style="rounded=1;whiteSpace=wrap;html=1;" vertex="1" parent="1">
                    <mxGeometry x="350" y="440" width="70" height="30" as="geometry"/>
                </mxCell>
                <mxCell id="22" value="物理层" style="rounded=1;whiteSpace=wrap;html=1;" vertex="1" parent="1">
                    <mxGeometry x="350" y="510" width="70" height="30" as="geometry"/>
                </mxCell>
                <mxCell id="24" value="data H7" style="rounded=0;whiteSpace=wrap;html=1;" vertex="1" parent="1">
                    <mxGeometry x="160" y="110" width="70" height="30" as="geometry"/>
                </mxCell>
                <mxCell id="25" value="n7-PDU H6" style="rounded=0;whiteSpace=wrap;html=1;" vertex="1" parent="1">
                    <mxGeometry x="160" y="190" width="70" height="30" as="geometry"/>
                </mxCell>
                <mxCell id="26" value="n6-PDU H5" style="rounded=0;whiteSpace=wrap;html=1;" vertex="1" parent="1">
                    <mxGeometry x="160" y="260" width="70" height="30" as="geometry"/>
                </mxCell>
                <mxCell id="27" value="n5-PDU H4" style="rounded=0;whiteSpace=wrap;html=1;" vertex="1" parent="1">
                    <mxGeometry x="160" y="330" width="70" height="30" as="geometry"/>
                </mxCell>
                <mxCell id="28" value="n4-PDU H3" style="rounded=0;whiteSpace=wrap;html=1;" vertex="1" parent="1">
                    <mxGeometry x="160" y="400" width="70" height="30" as="geometry"/>
                </mxCell>
                <mxCell id="29" value="n3-PDU H2" style="rounded=0;whiteSpace=wrap;html=1;" vertex="1" parent="1">
                    <mxGeometry x="160" y="480" width="70" height="30" as="geometry"/>
                </mxCell>
                <mxCell id="30" value="data H7" style="rounded=0;whiteSpace=wrap;html=1;" vertex="1" parent="1">
                    <mxGeometry x="540" y="110" width="70" height="30" as="geometry"/>
                </mxCell>
                <mxCell id="31" value="n7-PDU H6" style="rounded=0;whiteSpace=wrap;html=1;" vertex="1" parent="1">
                    <mxGeometry x="540" y="190" width="70" height="30" as="geometry"/>
                </mxCell>
                <mxCell id="32" value="n6-PDU H5" style="rounded=0;whiteSpace=wrap;html=1;" vertex="1" parent="1">
                    <mxGeometry x="540" y="260" width="70" height="30" as="geometry"/>
                </mxCell>
                <mxCell id="33" value="n5-PDU H4" style="rounded=0;whiteSpace=wrap;html=1;" vertex="1" parent="1">
                    <mxGeometry x="540" y="330" width="70" height="30" as="geometry"/>
                </mxCell>
                <mxCell id="34" value="n4-PDU H3" style="rounded=0;whiteSpace=wrap;html=1;" vertex="1" parent="1">
                    <mxGeometry x="540" y="400" width="70" height="30" as="geometry"/>
                </mxCell>
                <mxCell id="35" value="n3-PDU H2" style="rounded=0;whiteSpace=wrap;html=1;" vertex="1" parent="1">
                    <mxGeometry x="540" y="480" width="70" height="30" as="geometry"/>
                </mxCell>
                <mxCell id="36" value="" style="endArrow=classic;html=1;exitX=1;exitY=0.5;exitDx=0;exitDy=0;entryX=0;entryY=0.5;entryDx=0;entryDy=0;" edge="1" parent="1" source="8" target="22">
                    <mxGeometry width="50" height="50" relative="1" as="geometry">
                        <mxPoint x="360" y="330" as="sourcePoint"/>
                        <mxPoint x="410" y="280" as="targetPoint"/>
                        <Array as="points">
                            <mxPoint x="220" y="525"/>
                        </Array>
                    </mxGeometry>
                </mxCell>
                <mxCell id="37" value="" style="endArrow=classic;html=1;exitX=1;exitY=0.5;exitDx=0;exitDy=0;entryX=0;entryY=0.5;entryDx=0;entryDy=0;" edge="1" parent="1" source="22" target="15">
                    <mxGeometry width="50" height="50" relative="1" as="geometry">
                        <mxPoint x="360" y="330" as="sourcePoint"/>
                        <mxPoint x="410" y="280" as="targetPoint"/>
                    </mxGeometry>
                </mxCell>
                <mxCell id="38" value="" style="endArrow=classic;html=1;" edge="1" parent="1">
                    <mxGeometry width="50" height="50" relative="1" as="geometry">
                        <mxPoint x="40" y="100" as="sourcePoint"/>
                        <mxPoint x="40" y="530" as="targetPoint"/>
                    </mxGeometry>
                </mxCell>
                <mxCell id="39" value="" style="endArrow=classic;html=1;" edge="1" parent="1">
                    <mxGeometry width="50" height="50" relative="1" as="geometry">
                        <mxPoint x="330" y="510" as="sourcePoint"/>
                        <mxPoint x="330" y="380" as="targetPoint"/>
                    </mxGeometry>
                </mxCell>
                <mxCell id="40" value="" style="endArrow=classic;html=1;" edge="1" parent="1">
                    <mxGeometry width="50" height="50" relative="1" as="geometry">
                        <mxPoint x="440" y="390" as="sourcePoint"/>
                        <mxPoint x="440" y="510" as="targetPoint"/>
                    </mxGeometry>
                </mxCell>
                <mxCell id="41" value="" style="endArrow=classic;html=1;" edge="1" parent="1">
                    <mxGeometry width="50" height="50" relative="1" as="geometry">
                        <mxPoint x="720" y="530" as="sourcePoint"/>
                        <mxPoint x="720" y="90" as="targetPoint"/>
                    </mxGeometry>
                </mxCell>
            </root>
        </mxGraphModel>
    </diagram>
</mxfile>